<svg width="71" height="80" viewBox="0 0 71 80" fill="none" xmlns="http://www.w3.org/2000/svg">
<path d="M18.4608 15.7654H5.03601V49.8438H18.4608V15.7654Z" stroke="#EF7F1A" stroke-width="1.03268" stroke-miterlimit="22.9256" stroke-linecap="round" stroke-linejoin="round"/>
<path d="M34.4674 15.7654H20.0099V49.8438H34.4674V15.7654Z" stroke="#EF7F1A" stroke-width="1.03268" stroke-miterlimit="22.9256" stroke-linecap="round" stroke-linejoin="round"/>
<path d="M50.9902 15.7654H36.5327V49.8438H50.9902V15.7654Z" stroke="#EF7F1A" stroke-width="1.03268" stroke-miterlimit="22.9256" stroke-linecap="round" stroke-linejoin="round"/>
<path d="M66.4804 15.7654H53.0556V49.8438H66.4804V15.7654Z" stroke="#EF7F1A" stroke-width="1.03268" stroke-miterlimit="22.9256" stroke-linecap="round" stroke-linejoin="round"/>
<path fill-rule="evenodd" clip-rule="evenodd" d="M1.42163 12.6674H69.5785V20.4125H69.0622V53.4582H45.8269V52.9419H1.42163V12.6674Z" stroke="#EF7F1A" stroke-width="2.06536" stroke-miterlimit="22.9256" stroke-linecap="round" stroke-linejoin="round"/>
<path d="M8.65039 60.1707V72.5628" stroke="#EF7F1A" stroke-width="1.03268" stroke-miterlimit="22.9256" stroke-linecap="round" stroke-linejoin="round"/>
<path d="M15.8792 60.1707V72.5628" stroke="#EF7F1A" stroke-width="1.03268" stroke-miterlimit="22.9256" stroke-linecap="round" stroke-linejoin="round"/>
<path d="M23.1079 60.1707V72.5628" stroke="#EF7F1A" stroke-width="1.03268" stroke-miterlimit="22.9256" stroke-linecap="round" stroke-linejoin="round"/>
<path d="M30.3367 60.1707V72.5628" stroke="#EF7F1A" stroke-width="1.03268" stroke-miterlimit="22.9256" stroke-linecap="round" stroke-linejoin="round"/>
<path d="M37.5654 60.1707V72.5628" stroke="#EF7F1A" stroke-width="1.03268" stroke-miterlimit="22.9256" stroke-linecap="round" stroke-linejoin="round"/>
<path d="M45.3105 60.1707V72.5628" stroke="#EF7F1A" stroke-width="1.03268" stroke-miterlimit="22.9256" stroke-linecap="round" stroke-linejoin="round"/>
<path d="M52.0229 60.1707V72.5628" stroke="#EF7F1A" stroke-width="1.03268" stroke-miterlimit="22.9256" stroke-linecap="round" stroke-linejoin="round"/>
<path d="M59.7681 60.1707V72.5628" stroke="#EF7F1A" stroke-width="1.03268" stroke-miterlimit="22.9256" stroke-linecap="round" stroke-linejoin="round"/>
<path fill-rule="evenodd" clip-rule="evenodd" d="M69.0622 12.6674L69.5785 13.1837V15.7654H69.0622V78.2425H45.8269V77.7262H1.42163V12.6674H69.0622Z" stroke="#EF7F1A" stroke-width="2.06536" stroke-miterlimit="22.9256" stroke-linecap="round" stroke-linejoin="round"/>
<path fill-rule="evenodd" clip-rule="evenodd" d="M7.61771 1.30786H63.3824C64.4151 3.37322 69.0622 12.6673 69.0622 12.6673H1.42163L7.61771 1.30786V1.30786Z" stroke="#EF7F1A" stroke-width="2.06536" stroke-miterlimit="22.9256" stroke-linecap="round" stroke-linejoin="round"/>
<path d="M12.2647 4.40588L9.68304 9.05294" stroke="#EF7F1A" stroke-width="1.03268" stroke-miterlimit="22.9256" stroke-linecap="round" stroke-linejoin="round"/>
<path d="M19.4935 4.40588L18.4608 9.05294" stroke="#EF7F1A" stroke-width="1.03268" stroke-miterlimit="22.9256" stroke-linecap="round" stroke-linejoin="round"/>
<path d="M27.2386 4.40588L26.7223 9.05294" stroke="#EF7F1A" stroke-width="1.03268" stroke-miterlimit="22.9256" stroke-linecap="round" stroke-linejoin="round"/>
<path d="M35.5001 4.40588V9.05294" stroke="#EF7F1A" stroke-width="1.03268" stroke-miterlimit="22.9256" stroke-linecap="round" stroke-linejoin="round"/>
<path d="M50.9903 4.40588L52.0229 9.05294M58.219 4.40588L60.8007 9.05294L58.219 4.40588ZM35.5001 4.40588V9.05294V4.40588ZM43.2452 4.40588L43.7615 9.05294L43.2452 4.40588Z" stroke="#EF7F1A" stroke-width="1.03268" stroke-miterlimit="22.9256" stroke-linecap="round" stroke-linejoin="round"/>
</svg>
